<svg width="32768" height="1365" viewBox="-100 -100 32768 1365" fill="none" xmlns="http://www.w3.org/2000/svg">
    <defs>
        <filter id="dropshadow" x="-20%" y="-20%" width="140%" height="250%">
            <feGaussianBlur in="SourceAlpha" stdDeviation="80"/>
            <feOffset dx="-2" dy="-60" result="offsetblur"/>
            <feComponentTransfer>
                <feFuncA type="linear" slope="0.4"/>
            </feComponentTransfer>
            <feMerge>
                <feMergeNode/>
                <feMergeNode in="SourceGraphic"/>
            </feMerge>
        </filter>
    </defs>
<path filter="url(#dropshadow)" d="M-829.99 426.743C-1067.16 348.077 -1275.23 290.77 -1349.61 271.95L-1362.4 287.031L-1362.4 762.556L-855.716 826.109C-841.238 844.573 -610.821 711.199 -481.744 714.532C-352.666 717.865 -332.286 782.086 -284.822 795.744L-102.413 762.556L100.55 762.556L404.849 762.556L576.791 734.205L842.229 734.205L994.541 707.694L1470.95 847.319C1712.5 927.036 2018.51 827.123 2166.43 795.744C2351.33 756.521 3575.09 834.843 3721.7 795.744C4116.19 690.541 4428.92 1116.02 4751.49 957.958C5074.05 799.898 5524.6 719.785 5667.25 750.493C5809.91 781.201 6132.55 756.971 6189.7 795.745C6268.56 862.326 6582.83 775.872 6655.21 750.493C6727.59 725.115 6838.18 775.631 7033.87 787.384C7229.55 799.137 7429.6 819.373 7650.98 750.493C7872.36 681.614 8060.99 830.474 8160.47 795.744C8391.23 706.783 9169.45 786.704 9314.73 898.999C9460 1011.29 9836.77 952.691 9958.44 938.859C10080.1 925.026 10290 635.675 10405.6 675.957C10498 708.182 10785.9 773.475 10850.6 755.938C10931 771.563 11101.6 803.067 11141 804.084C11190.2 805.356 11671.8 743.194 11788.5 556.144C11888.1 687.584 12106.8 733.88 12224.9 675.957C12328.3 831.393 12500.2 781.559 12711.8 749.501C12923.3 717.443 13145.3 981.357 13247 858.467C13348.8 735.576 13898 746.916 14038.9 675.957C14179.7 604.998 14597 904.388 14666.5 821.535C15133.9 784.221 15441.4 815.296 15678.2 845.309C15915.1 875.322 16128.4 884.305 16322.1 845.31C16477.1 814.113 16872.9 678.727 16918 727.317C17157.4 715.408 17737.5 902.55 17883.7 800.55C18066.5 673.051 18299.1 832.046 18394.1 800.55C18489 769.055 18744 695.339 18770.8 696.032L18981.4 701.47L18980.8 725.352L19056.9 727.317L19135.8 803.95C19234.9 783.877 19451.6 684.119 19457.6 738.588C19465 806.675 19740.3 810.63 19829.3 839.951C20006.7 908.854 20153.5 703.965 20317.6 772.525C20955.8 1067.06 21241.7 644.128 21414 747.072C21586.4 850.017 22082.8 964.749 22251.2 867.254C22385.9 789.258 22739 966.083 22839.5 1010.59C23352.2 1059.49 23844.2 1066.49 23891.1 1059.49C23949.8 1050.73 24549.4 939.146 24682.5 996.855C24815.6 1054.56 25325.5 1105.25 25484.8 1017.57C25644.1 929.892 26010.4 976.871 26082.1 978.722C26153.7 980.573 26443.2 1062.87 26557.3 990.992C26671.3 919.117 26855.8 893.508 27026.4 884.511C27196.9 875.514 27248.9 771.439 27390.7 832.725C27532.6 894.01 27602.4 807.593 27719 810.602C27835.5 813.61 27945.4 887.695 28101.9 739.193C28257.9 591.069 28611.9 714.478 28728.4 755.083L28729.2 755.393C28844.8 795.675 29039.2 732.798 29137.2 765.927C29235.2 799.056 29361.8 744.478 29569.6 858.388C29777.4 972.298 30082.6 786.99 30220.1 848.161C30402 924.105 30467.8 855.565 30629.8 832.725C30791.9 809.885 30910.6 960.374 31054.9 926.579C31199.3 892.784 31300.6 793.8 31433.8 848.161C31833 1028.21 31856 800.764 32015 896.439C32174 992.114 32384.5 803.854 32425.4 777.883C32460.4 808.807 32724.4 898.816 32767.8 896.439L32767.8 460.844C32625.2 487.684 31885.3 486.813 31786.6 549.481C31663.2 627.816 31161.7 530.671 30957.1 460.844C30752.6 391.018 30633.4 475.967 30374.9 418.369C30116.3 360.771 29829 550.114 29610.8 483.508C29392.6 416.902 29436.5 284.985 29265.6 307.82C29094.7 330.654 28792.6 210.736 28701.4 266.004C28486.9 413.23 27761.8 363.908 27639.4 418.369C27516.9 472.83 27371.3 547.238 27254.1 567.888C27137 588.538 26987.3 486.403 26814.9 556.547C26642.5 626.691 26624.2 477.027 26392.7 413.426C26161.2 349.825 26325.7 574.511 25896.4 532.829C25467.1 491.146 25478.8 552.644 25366.7 549.75C25254.7 546.855 25006.2 441.946 24870.2 506.331C24734.3 570.716 24222 598.137 23949.1 570.766C23676.2 543.395 23808.1 648.644 23547.6 665.592C23287.1 682.54 23384.7 549.492 23137.4 570.131C22958 395.759 22972.9 518.534 22822 453.441C22671 388.349 22433 416.373 22297.8 439.907C22299.6 372.056 22165.5 351.62 22120.2 367.425C22074.9 383.23 21806.8 352.633 21723.8 265.619C21640.7 178.604 21321.4 223.513 21266.6 253.813C21211.8 284.112 20597.1 131.331 20500 71.2034C20403 11.0758 20238.7 122.077 20167 120.226C20095.3 118.375 19867.4 85.4661 19754.6 109.578C19641.9 133.69 19569.4 240.587 19526.2 177.159C19483 113.731 18925.1 224.372 18800.1 153.246C18675 82.1202 18445.1 128.588 18423.3 105.467C18405.8 86.9697 18303.1 59.1901 18271 50.7663C18261.6 27.893 18249.1 66.314 18178.4 23.751C18090 -29.4527 18064.7 24.9088 18019.9 23.751C17984 22.8249 17645.4 107.074 17583.2 105.467C17561.4 78.4766 17473.3 222.952 17299.8 218.473C17083 212.875 17080.6 302.943 16947.3 254.162C16814 205.381 16426.3 228.903 16306.1 254.163C16269.8 219.277 15836.5 107.011 15707.5 177.158C15694.9 80.5743 14586 -51.6538 14460.5 177.158C14068.5 8.68555 13015 71.3389 12894.5 107.759C12774 144.18 12407.3 381.965 12059.6 231.613C11712 81.2605 11327 382.786 11170.9 344.809C11122.4 201.957 10567.5 230.825 10476.1 296.36C10384.7 361.896 9759.45 434.586 9787.12 231.613C9809.26 69.2346 9300.23 286.222 9110.47 296.36L9103.86 299.748C9007.63 349.072 8737.18 487.689 8690.73 387.449C8590.14 170.323 8446.69 313.828 8294.66 296.36C7983.2 260.573 7668.91 465.192 7587.35 434.722C7505.78 404.252 7164.27 451.233 7098.62 387.449C7032.97 323.665 6849.28 389.376 6774.66 387.449C6700.03 385.522 6547.04 290.911 6436.41 231.549C6237.1 250.016 6312.42 330.139 6113.56 308.03C6003.35 327.816 5782.24 160.912 5734.46 155.032C5674.73 147.683 5500.5 117.462 5424.56 155.032C5348.62 192.603 4860.08 382.691 4666.57 343.747C4473.06 304.802 4126.46 411.075 3969.98 390.06C3813.49 369.046 3330.91 324.914 3224.44 390.06C3117.97 455.207 3005.89 452.313 2879.35 437.655C2752.8 422.997 2420.4 539.038 2212.87 460.2C2005.34 381.362 1610.49 370.421 1202.92 479.236C1014.67 529.496 857.79 423.638 784.403 465.146L657.234 465.146C492.303 481.658 -90.3568 479.236 -284.822 370.421C-514.066 242.145 -533.528 525.075 -829.99 426.743Z" fill="white"/>
</svg>
